<mxfile host="Electron" agent="Mozilla/5.0 (Windows NT 10.0; Win64; x64) AppleWebKit/537.36 (KHTML, like Gecko) draw.io/25.0.2 Chrome/128.0.6613.186 Electron/32.2.5 Safari/537.36" version="25.0.2">
  <diagram name="Page-1" id="nHWfRAklP91XCj0fEfsb">
    <mxGraphModel dx="3050" dy="2430" grid="1" gridSize="10" guides="1" tooltips="1" connect="1" arrows="1" fold="1" page="1" pageScale="1" pageWidth="850" pageHeight="1100" math="0" shadow="0">
      <root>
        <mxCell id="0" />
        <mxCell id="1" parent="0" />
        <mxCell id="UmMrPSmnTauwYGMyU9Ws-1" value="Freelancer" style="shape=umlActor;verticalLabelPosition=bottom;verticalAlign=top;html=1;strokeWidth=11;shadow=1;fontStyle=1;fontSize=40;textShadow=1;labelBackgroundColor=none;labelBorderColor=none;" parent="1" vertex="1">
          <mxGeometry x="-760" y="240" width="210" height="370" as="geometry" />
        </mxCell>
        <mxCell id="UmMrPSmnTauwYGMyU9Ws-3" value="Admin" style="shape=umlActor;verticalLabelPosition=bottom;verticalAlign=top;html=1;strokeWidth=11;shadow=1;fontStyle=1;fontSize=40;textShadow=1;labelBackgroundColor=none;labelBorderColor=none;" parent="1" vertex="1">
          <mxGeometry x="-640" y="1395" width="210" height="370" as="geometry" />
        </mxCell>
        <mxCell id="UmMrPSmnTauwYGMyU9Ws-5" value="Client" style="shape=umlActor;verticalLabelPosition=bottom;verticalAlign=top;html=1;strokeWidth=11;shadow=1;fontStyle=1;fontSize=40;textShadow=1;labelBackgroundColor=none;labelBorderColor=none;" parent="1" vertex="1">
          <mxGeometry x="2040" y="290" width="210" height="370" as="geometry" />
        </mxCell>
        <mxCell id="UmMrPSmnTauwYGMyU9Ws-6" value="Payment&lt;div&gt;Gateways&lt;/div&gt;" style="html=1;whiteSpace=wrap;shadow=1;strokeColor=default;strokeWidth=11;align=center;verticalAlign=middle;fontFamily=Helvetica;fontSize=40;fontColor=default;fillColor=default;fontStyle=1;textShadow=1;" parent="1" vertex="1">
          <mxGeometry x="1970" y="1150" width="340" height="140" as="geometry" />
        </mxCell>
        <mxCell id="UmMrPSmnTauwYGMyU9Ws-7" value="Notification&lt;div&gt;System&lt;/div&gt;" style="html=1;whiteSpace=wrap;shadow=1;strokeColor=default;strokeWidth=11;align=center;verticalAlign=middle;fontFamily=Helvetica;fontSize=40;fontColor=default;fillColor=default;fontStyle=1;textShadow=1;" parent="1" vertex="1">
          <mxGeometry x="1975" y="1650" width="340" height="140" as="geometry" />
        </mxCell>
        <mxCell id="UmMrPSmnTauwYGMyU9Ws-10" value="&lt;font style=&quot;font-size: 24px;&quot;&gt;&lt;b style=&quot;&quot;&gt;System&lt;/b&gt;&lt;/font&gt;" style="html=1;whiteSpace=wrap;shadow=1;strokeColor=default;strokeWidth=3;align=left;verticalAlign=top;fontFamily=Helvetica;fontSize=12;fontColor=default;fillColor=default;textShadow=1;rounded=0;glass=0;" parent="1" vertex="1">
          <mxGeometry x="20" y="-160" width="1390" height="2120" as="geometry" />
        </mxCell>
        <mxCell id="UmMrPSmnTauwYGMyU9Ws-12" value="&lt;p class=&quot;MsoNormal&quot;&gt;Get certifications on skills&lt;/p&gt;" style="ellipse;whiteSpace=wrap;html=1;shadow=1;strokeColor=default;strokeWidth=3;align=center;verticalAlign=middle;fontFamily=Helvetica;fontSize=14;fontColor=default;fillColor=default;labelBorderColor=none;textShadow=1;fontStyle=1" parent="1" vertex="1">
          <mxGeometry x="230" y="840" width="160" height="70" as="geometry" />
        </mxCell>
        <mxCell id="UmMrPSmnTauwYGMyU9Ws-13" value="&lt;p class=&quot;MsoNormal&quot;&gt;Highlights freelancer’s profile&lt;/p&gt;" style="ellipse;whiteSpace=wrap;html=1;shadow=1;strokeColor=default;strokeWidth=3;align=center;verticalAlign=middle;fontFamily=Helvetica;fontSize=14;fontColor=default;fillColor=default;labelBorderColor=none;textShadow=1;fontStyle=1" parent="1" vertex="1">
          <mxGeometry x="280" y="540" width="140" height="70" as="geometry" />
        </mxCell>
        <mxCell id="UmMrPSmnTauwYGMyU9Ws-14" value="&lt;p class=&quot;MsoNormal&quot;&gt;Features job posting&lt;/p&gt;" style="ellipse;whiteSpace=wrap;html=1;shadow=1;strokeColor=default;strokeWidth=3;align=center;verticalAlign=middle;fontFamily=Helvetica;fontSize=14;fontColor=default;fillColor=default;labelBorderColor=none;textShadow=1;fontStyle=1" parent="1" vertex="1">
          <mxGeometry x="1080" y="190" width="140" height="70" as="geometry" />
        </mxCell>
        <mxCell id="UmMrPSmnTauwYGMyU9Ws-15" value="&lt;p class=&quot;MsoNormal&quot;&gt;Manages payment security&lt;/p&gt;" style="ellipse;whiteSpace=wrap;html=1;shadow=1;strokeColor=default;strokeWidth=3;align=center;verticalAlign=middle;fontFamily=Helvetica;fontSize=14;fontColor=default;fillColor=default;labelBorderColor=none;textShadow=1;fontStyle=1" parent="1" vertex="1">
          <mxGeometry x="140" y="1870" width="210" height="70" as="geometry" />
        </mxCell>
        <mxCell id="UmMrPSmnTauwYGMyU9Ws-16" value="&lt;p class=&quot;MsoNormal&quot;&gt;Monitoring analytics&lt;/p&gt;&lt;p class=&quot;MsoNormal&quot;&gt;&amp;nbsp;of the platform activities&lt;/p&gt;" style="ellipse;whiteSpace=wrap;html=1;shadow=1;strokeColor=default;strokeWidth=3;align=center;verticalAlign=middle;fontFamily=Helvetica;fontSize=14;fontColor=default;fillColor=default;labelBorderColor=none;textShadow=1;fontStyle=1" parent="1" vertex="1">
          <mxGeometry x="190" y="1720" width="200" height="85" as="geometry" />
        </mxCell>
        <mxCell id="UmMrPSmnTauwYGMyU9Ws-17" value="&lt;p class=&quot;MsoNormal&quot;&gt;Resolving disputes b/w freelancers &amp;amp; clients&lt;/p&gt;" style="ellipse;whiteSpace=wrap;html=1;shadow=1;strokeColor=default;strokeWidth=3;align=center;verticalAlign=middle;fontFamily=Helvetica;fontSize=14;fontColor=default;fillColor=default;labelBorderColor=none;textShadow=1;fontStyle=1" parent="1" vertex="1">
          <mxGeometry x="425" y="1370" width="140" height="70" as="geometry" />
        </mxCell>
        <mxCell id="UmMrPSmnTauwYGMyU9Ws-18" value="&lt;p class=&quot;MsoNormal&quot;&gt;Moderate users’ profiles &amp;amp; jobs posting&lt;/p&gt;" style="ellipse;whiteSpace=wrap;html=1;shadow=1;strokeColor=default;strokeWidth=3;align=center;verticalAlign=middle;fontFamily=Helvetica;fontSize=14;fontColor=default;fillColor=default;labelBorderColor=none;textShadow=1;fontStyle=1" parent="1" vertex="1">
          <mxGeometry x="400" y="1670" width="140" height="70" as="geometry" />
        </mxCell>
        <mxCell id="UmMrPSmnTauwYGMyU9Ws-19" value="&lt;p class=&quot;MsoNormal&quot;&gt;Check ratings &amp;amp; reviews on the profiles&lt;/p&gt;" style="ellipse;whiteSpace=wrap;html=1;shadow=1;strokeColor=default;strokeWidth=3;align=center;verticalAlign=middle;fontFamily=Helvetica;fontSize=14;fontColor=default;fillColor=default;labelBorderColor=none;textShadow=1;fontStyle=1" parent="1" vertex="1">
          <mxGeometry x="650" y="1330" width="140" height="70" as="geometry" />
        </mxCell>
        <mxCell id="UmMrPSmnTauwYGMyU9Ws-20" value="&lt;p class=&quot;MsoNormal&quot;&gt;Leave reviews for client&lt;/p&gt;" style="ellipse;whiteSpace=wrap;html=1;shadow=1;strokeColor=default;strokeWidth=3;align=center;verticalAlign=middle;fontFamily=Helvetica;fontSize=14;fontColor=default;fillColor=default;labelBorderColor=none;textShadow=1;fontStyle=1" parent="1" vertex="1">
          <mxGeometry x="440" y="800" width="140" height="70" as="geometry" />
        </mxCell>
        <mxCell id="UmMrPSmnTauwYGMyU9Ws-21" value="&lt;p class=&quot;MsoNormal&quot;&gt;Leave reviews for freelancer&lt;/p&gt;" style="ellipse;whiteSpace=wrap;html=1;shadow=1;strokeColor=default;strokeWidth=3;align=center;verticalAlign=middle;fontFamily=Helvetica;fontSize=14;fontColor=default;fillColor=default;labelBorderColor=none;textShadow=1;fontStyle=1" parent="1" vertex="1">
          <mxGeometry x="1135" y="1130" width="140" height="70" as="geometry" />
        </mxCell>
        <mxCell id="UmMrPSmnTauwYGMyU9Ws-22" value="&lt;p class=&quot;MsoNormal&quot;&gt;Create a bid with proposal&lt;/p&gt;" style="ellipse;whiteSpace=wrap;html=1;shadow=1;strokeColor=default;strokeWidth=3;align=center;verticalAlign=middle;fontFamily=Helvetica;fontSize=14;fontColor=default;fillColor=default;labelBorderColor=none;textShadow=1;fontStyle=1" parent="1" vertex="1">
          <mxGeometry x="190" y="90" width="140" height="70" as="geometry" />
        </mxCell>
        <mxCell id="UmMrPSmnTauwYGMyU9Ws-23" value="&lt;p class=&quot;MsoNormal&quot;&gt;Delete or edit a job&lt;/p&gt;" style="ellipse;whiteSpace=wrap;html=1;shadow=1;strokeColor=default;strokeWidth=3;align=center;verticalAlign=middle;fontFamily=Helvetica;fontSize=14;fontColor=default;fillColor=default;labelBorderColor=none;textShadow=1;fontStyle=1" parent="1" vertex="1">
          <mxGeometry x="1030" y="620" width="140" height="70" as="geometry" />
        </mxCell>
        <mxCell id="UmMrPSmnTauwYGMyU9Ws-24" value="&lt;p class=&quot;MsoNormal&quot;&gt;Searching &amp;amp; filtration of jobs&lt;/p&gt;" style="ellipse;whiteSpace=wrap;html=1;shadow=1;strokeColor=default;strokeWidth=3;align=center;verticalAlign=middle;fontFamily=Helvetica;fontSize=14;fontColor=default;fillColor=default;labelBorderColor=none;textShadow=1;fontStyle=1" parent="1" vertex="1">
          <mxGeometry x="180" y="460" width="140" height="70" as="geometry" />
        </mxCell>
        <mxCell id="UmMrPSmnTauwYGMyU9Ws-25" value="&lt;p class=&quot;MsoNormal&quot;&gt;Viewing posted jobs&lt;/p&gt;" style="ellipse;whiteSpace=wrap;html=1;shadow=1;strokeColor=default;strokeWidth=3;align=center;verticalAlign=middle;fontFamily=Helvetica;fontSize=14;fontColor=default;fillColor=default;labelBorderColor=none;textShadow=1;fontStyle=1" parent="1" vertex="1">
          <mxGeometry x="200" y="230" width="140" height="70" as="geometry" />
        </mxCell>
        <mxCell id="UmMrPSmnTauwYGMyU9Ws-26" value="&lt;p class=&quot;MsoNormal&quot;&gt;Posting job&lt;/p&gt;" style="ellipse;whiteSpace=wrap;html=1;shadow=1;strokeColor=default;strokeWidth=3;align=center;verticalAlign=middle;fontFamily=Helvetica;fontSize=14;fontColor=default;fillColor=default;labelBorderColor=none;textShadow=1;fontStyle=1" parent="1" vertex="1">
          <mxGeometry x="1220" y="-100" width="140" height="70" as="geometry" />
        </mxCell>
        <mxCell id="UmMrPSmnTauwYGMyU9Ws-27" value="&lt;p class=&quot;MsoNormal&quot;&gt;User identity verification&lt;/p&gt;" style="ellipse;whiteSpace=wrap;html=1;shadow=1;strokeColor=default;strokeWidth=3;align=center;verticalAlign=middle;fontFamily=Helvetica;fontSize=14;fontColor=default;fillColor=default;labelBorderColor=none;textShadow=1;fontStyle=1" parent="1" vertex="1">
          <mxGeometry x="1010" y="350" width="140" height="70" as="geometry" />
        </mxCell>
        <mxCell id="UmMrPSmnTauwYGMyU9Ws-30" value="&lt;p class=&quot;MsoNormal&quot;&gt;Login/Logout&lt;/p&gt;" style="ellipse;whiteSpace=wrap;html=1;shadow=1;strokeColor=default;strokeWidth=3;align=center;verticalAlign=middle;fontFamily=Helvetica;fontSize=14;fontColor=default;fillColor=default;labelBorderColor=none;textShadow=1;fontStyle=1" parent="1" vertex="1">
          <mxGeometry x="630" y="20" width="140" height="70" as="geometry" />
        </mxCell>
        <mxCell id="UmMrPSmnTauwYGMyU9Ws-31" value="&lt;p class=&quot;MsoNormal&quot;&gt;New user registration&lt;/p&gt;" style="ellipse;whiteSpace=wrap;html=1;shadow=1;strokeColor=default;strokeWidth=3;align=center;verticalAlign=middle;fontFamily=Helvetica;fontSize=14;fontColor=default;fillColor=default;labelBorderColor=none;textShadow=1;fontStyle=1" parent="1" vertex="1">
          <mxGeometry x="690" y="-150" width="140" height="70" as="geometry" />
        </mxCell>
        <mxCell id="UmMrPSmnTauwYGMyU9Ws-32" value="&lt;p class=&quot;MsoNormal&quot;&gt;Getting freelancer recommendations&lt;/p&gt;" style="ellipse;whiteSpace=wrap;html=1;shadow=1;strokeColor=default;strokeWidth=3;align=center;verticalAlign=middle;fontFamily=Helvetica;fontSize=14;fontColor=default;fillColor=default;labelBorderColor=none;textShadow=1;fontStyle=1" parent="1" vertex="1">
          <mxGeometry x="1070" y="930" width="140" height="70" as="geometry" />
        </mxCell>
        <mxCell id="UmMrPSmnTauwYGMyU9Ws-33" value="&lt;p class=&quot;MsoNormal&quot;&gt;Getting job recommendations&lt;/p&gt;" style="ellipse;whiteSpace=wrap;html=1;shadow=1;strokeColor=default;strokeWidth=3;align=center;verticalAlign=middle;fontFamily=Helvetica;fontSize=14;fontColor=default;fillColor=default;labelBorderColor=none;textShadow=1;fontStyle=1" parent="1" vertex="1">
          <mxGeometry x="100" y="740" width="140" height="70" as="geometry" />
        </mxCell>
        <mxCell id="UmMrPSmnTauwYGMyU9Ws-34" value="&lt;p class=&quot;MsoNormal&quot;&gt;Searching jobs&lt;/p&gt;" style="ellipse;whiteSpace=wrap;html=1;shadow=1;strokeColor=default;strokeWidth=3;align=center;verticalAlign=middle;fontFamily=Helvetica;fontSize=14;fontColor=default;fillColor=default;labelBorderColor=none;textShadow=1;fontStyle=1" parent="1" vertex="1">
          <mxGeometry x="240" y="620" width="140" height="70" as="geometry" />
        </mxCell>
        <mxCell id="UmMrPSmnTauwYGMyU9Ws-35" value="&lt;p class=&quot;MsoNormal&quot;&gt;Searching freelancers&lt;/p&gt;" style="ellipse;whiteSpace=wrap;html=1;shadow=1;strokeColor=default;strokeWidth=3;align=center;verticalAlign=middle;fontFamily=Helvetica;fontSize=14;fontColor=default;fillColor=default;labelBorderColor=none;textShadow=1;fontStyle=1" parent="1" vertex="1">
          <mxGeometry x="810" y="1160" width="140" height="70" as="geometry" />
        </mxCell>
        <mxCell id="UmMrPSmnTauwYGMyU9Ws-36" value="&lt;p class=&quot;MsoNormal&quot;&gt;Receive notifications for updates&lt;/p&gt;" style="ellipse;whiteSpace=wrap;html=1;shadow=1;strokeColor=default;strokeWidth=3;align=center;verticalAlign=middle;fontFamily=Helvetica;fontSize=14;fontColor=default;fillColor=default;labelBorderColor=none;textShadow=1;fontStyle=1" parent="1" vertex="1">
          <mxGeometry x="830" y="1860" width="140" height="70" as="geometry" />
        </mxCell>
        <mxCell id="UmMrPSmnTauwYGMyU9Ws-37" value="&lt;p class=&quot;MsoNormal&quot;&gt;Sharing project related files&lt;/p&gt;" style="ellipse;whiteSpace=wrap;html=1;shadow=1;strokeColor=default;strokeWidth=3;align=center;verticalAlign=middle;fontFamily=Helvetica;fontSize=14;fontColor=default;fillColor=default;labelBorderColor=none;textShadow=1;fontStyle=1" parent="1" vertex="1">
          <mxGeometry x="540" y="620" width="140" height="70" as="geometry" />
        </mxCell>
        <mxCell id="UmMrPSmnTauwYGMyU9Ws-38" value="&lt;p class=&quot;MsoNormal&quot;&gt;Sending &amp;amp; receiving messages&lt;/p&gt;" style="ellipse;whiteSpace=wrap;html=1;shadow=1;strokeColor=default;strokeWidth=3;align=center;verticalAlign=middle;fontFamily=Helvetica;fontSize=14;fontColor=default;fillColor=default;labelBorderColor=none;textShadow=1;fontStyle=1" parent="1" vertex="1">
          <mxGeometry x="700" y="450" width="140" height="70" as="geometry" />
        </mxCell>
        <mxCell id="UmMrPSmnTauwYGMyU9Ws-39" value="&lt;p class=&quot;MsoNormal&quot;&gt;Resolving payment disputes&lt;/p&gt;" style="ellipse;whiteSpace=wrap;html=1;shadow=1;strokeColor=default;strokeWidth=3;align=center;verticalAlign=middle;fontFamily=Helvetica;fontSize=14;fontColor=default;fillColor=default;labelBorderColor=none;textShadow=1;fontStyle=1" parent="1" vertex="1">
          <mxGeometry x="270" y="1540" width="140" height="70" as="geometry" />
        </mxCell>
        <mxCell id="UmMrPSmnTauwYGMyU9Ws-40" value="&lt;p class=&quot;MsoNormal&quot;&gt;View history of payments&lt;/p&gt;" style="ellipse;whiteSpace=wrap;html=1;shadow=1;strokeColor=default;strokeWidth=3;align=center;verticalAlign=middle;fontFamily=Helvetica;fontSize=14;fontColor=default;fillColor=default;labelBorderColor=none;textShadow=1;fontStyle=1" parent="1" vertex="1">
          <mxGeometry x="260" y="910" width="140" height="70" as="geometry" />
        </mxCell>
        <mxCell id="UmMrPSmnTauwYGMyU9Ws-41" value="&lt;p class=&quot;MsoNormal&quot;&gt;Process payments&lt;/p&gt;" style="ellipse;whiteSpace=wrap;html=1;shadow=1;strokeColor=default;strokeWidth=3;align=center;verticalAlign=middle;fontFamily=Helvetica;fontSize=14;fontColor=default;fillColor=default;labelBorderColor=none;textShadow=1;fontStyle=1" parent="1" vertex="1">
          <mxGeometry x="790" y="1600" width="140" height="70" as="geometry" />
        </mxCell>
        <mxCell id="UmMrPSmnTauwYGMyU9Ws-42" value="&lt;p class=&quot;MsoNormal&quot;&gt;Request for the milestones’ payment&lt;/p&gt;" style="ellipse;whiteSpace=wrap;html=1;shadow=1;strokeColor=default;strokeWidth=3;align=center;verticalAlign=middle;fontFamily=Helvetica;fontSize=14;fontColor=default;fillColor=default;labelBorderColor=none;textShadow=1;fontStyle=1" parent="1" vertex="1">
          <mxGeometry x="110" y="1350" width="140" height="70" as="geometry" />
        </mxCell>
        <mxCell id="UmMrPSmnTauwYGMyU9Ws-43" value="&lt;p class=&quot;MsoNormal&quot;&gt;Create a payment by escrow&lt;/p&gt;" style="ellipse;whiteSpace=wrap;html=1;shadow=1;strokeColor=default;strokeWidth=3;align=center;verticalAlign=middle;fontFamily=Helvetica;fontSize=14;fontColor=default;fillColor=default;labelBorderColor=none;textShadow=1;fontStyle=1" parent="1" vertex="1">
          <mxGeometry x="1150" y="1240" width="160" height="70" as="geometry" />
        </mxCell>
        <mxCell id="UmMrPSmnTauwYGMyU9Ws-44" value="&lt;p class=&quot;MsoNormal&quot;&gt;Tracking project progress&lt;/p&gt;" style="ellipse;whiteSpace=wrap;html=1;shadow=1;strokeColor=default;strokeWidth=3;align=center;verticalAlign=middle;fontFamily=Helvetica;fontSize=14;fontColor=default;fillColor=default;labelBorderColor=none;textShadow=1;fontStyle=1" parent="1" vertex="1">
          <mxGeometry x="880" y="550" width="140" height="70" as="geometry" />
        </mxCell>
        <mxCell id="UmMrPSmnTauwYGMyU9Ws-45" value="&lt;p class=&quot;MsoNormal&quot;&gt;Approval of completed milestones&lt;/p&gt;" style="ellipse;whiteSpace=wrap;html=1;shadow=1;strokeColor=default;strokeWidth=3;align=center;verticalAlign=middle;fontFamily=Helvetica;fontSize=14;fontColor=default;fillColor=default;labelBorderColor=none;textShadow=1;fontStyle=1" parent="1" vertex="1">
          <mxGeometry x="720" y="720" width="140" height="70" as="geometry" />
        </mxCell>
        <mxCell id="UmMrPSmnTauwYGMyU9Ws-46" value="&lt;p class=&quot;MsoNormal&quot;&gt;Updating the project status&lt;/p&gt;" style="ellipse;whiteSpace=wrap;html=1;shadow=1;strokeColor=default;strokeWidth=3;align=center;verticalAlign=middle;fontFamily=Helvetica;fontSize=14;fontColor=default;fillColor=default;labelBorderColor=none;textShadow=1;fontStyle=1" parent="1" vertex="1">
          <mxGeometry x="440" y="710" width="140" height="70" as="geometry" />
        </mxCell>
        <mxCell id="UmMrPSmnTauwYGMyU9Ws-47" value="&lt;p class=&quot;MsoNormal&quot;&gt;Purchases subscription plans&lt;/p&gt;" style="ellipse;whiteSpace=wrap;html=1;shadow=1;strokeColor=default;strokeWidth=3;align=center;verticalAlign=middle;fontFamily=Helvetica;fontSize=14;fontColor=default;fillColor=default;labelBorderColor=none;textShadow=1;fontStyle=1" parent="1" vertex="1">
          <mxGeometry x="900" y="410" width="140" height="70" as="geometry" />
        </mxCell>
        <mxCell id="UmMrPSmnTauwYGMyU9Ws-48" value="&lt;p class=&quot;MsoNormal&quot;&gt;Creating &amp;amp; management of project milestones&lt;/p&gt;" style="ellipse;whiteSpace=wrap;html=1;shadow=1;strokeColor=default;strokeWidth=3;align=center;verticalAlign=middle;fontFamily=Helvetica;fontSize=14;fontColor=default;fillColor=default;labelBorderColor=none;textShadow=1;fontStyle=1" parent="1" vertex="1">
          <mxGeometry x="930" y="850" width="140" height="70" as="geometry" />
        </mxCell>
        <mxCell id="UmMrPSmnTauwYGMyU9Ws-50" value="&lt;p class=&quot;MsoNormal&quot;&gt;Review freelancers’ Proposals&lt;/p&gt;" style="ellipse;whiteSpace=wrap;html=1;shadow=1;strokeColor=default;strokeWidth=3;align=center;verticalAlign=middle;fontFamily=Helvetica;fontSize=14;fontColor=default;fillColor=default;labelBorderColor=none;textShadow=1;fontStyle=1" parent="1" vertex="1">
          <mxGeometry x="720" y="980" width="140" height="70" as="geometry" />
        </mxCell>
        <mxCell id="UmMrPSmnTauwYGMyU9Ws-51" value="&lt;p class=&quot;MsoNormal&quot;&gt;Check the&amp;nbsp;&lt;/p&gt;&lt;p class=&quot;MsoNormal&quot;&gt;submitted bids&lt;/p&gt;" style="ellipse;whiteSpace=wrap;html=1;shadow=1;strokeColor=default;strokeWidth=3;align=center;verticalAlign=middle;fontFamily=Helvetica;fontSize=14;fontColor=default;fillColor=default;labelBorderColor=none;textShadow=1;fontStyle=1" parent="1" vertex="1">
          <mxGeometry x="190" y="330" width="140" height="70" as="geometry" />
        </mxCell>
        <mxCell id="GBGF587jGVmbTTjGobel-1" value="" style="endArrow=none;html=1;rounded=0;entryX=0.5;entryY=0.5;entryDx=0;entryDy=0;entryPerimeter=0;exitX=1;exitY=0.5;exitDx=0;exitDy=0;" edge="1" parent="1" source="UmMrPSmnTauwYGMyU9Ws-31" target="UmMrPSmnTauwYGMyU9Ws-5">
          <mxGeometry width="50" height="50" relative="1" as="geometry">
            <mxPoint x="600" y="210" as="sourcePoint" />
            <mxPoint x="640" y="170" as="targetPoint" />
          </mxGeometry>
        </mxCell>
        <mxCell id="GBGF587jGVmbTTjGobel-2" value="" style="endArrow=none;html=1;rounded=0;entryX=0.5;entryY=0.5;entryDx=0;entryDy=0;entryPerimeter=0;exitX=1;exitY=0.5;exitDx=0;exitDy=0;" edge="1" parent="1" source="UmMrPSmnTauwYGMyU9Ws-29" target="UmMrPSmnTauwYGMyU9Ws-5">
          <mxGeometry width="50" height="50" relative="1" as="geometry">
            <mxPoint x="600" y="210" as="sourcePoint" />
            <mxPoint x="650" y="160" as="targetPoint" />
          </mxGeometry>
        </mxCell>
        <mxCell id="GBGF587jGVmbTTjGobel-3" value="" style="endArrow=none;html=1;rounded=0;entryX=0.5;entryY=0.5;entryDx=0;entryDy=0;entryPerimeter=0;exitX=1;exitY=0.5;exitDx=0;exitDy=0;" edge="1" parent="1" source="UmMrPSmnTauwYGMyU9Ws-29" target="UmMrPSmnTauwYGMyU9Ws-5">
          <mxGeometry width="50" height="50" relative="1" as="geometry">
            <mxPoint x="600" y="210" as="sourcePoint" />
            <mxPoint x="650" y="160" as="targetPoint" />
          </mxGeometry>
        </mxCell>
        <mxCell id="GBGF587jGVmbTTjGobel-4" value="" style="endArrow=none;html=1;rounded=0;entryX=0.5;entryY=0.5;entryDx=0;entryDy=0;entryPerimeter=0;exitX=1;exitY=0.5;exitDx=0;exitDy=0;" edge="1" parent="1" source="UmMrPSmnTauwYGMyU9Ws-28" target="UmMrPSmnTauwYGMyU9Ws-5">
          <mxGeometry width="50" height="50" relative="1" as="geometry">
            <mxPoint x="610" y="220" as="sourcePoint" />
            <mxPoint x="660" y="170" as="targetPoint" />
          </mxGeometry>
        </mxCell>
        <mxCell id="GBGF587jGVmbTTjGobel-5" value="" style="endArrow=none;html=1;rounded=0;entryX=0.5;entryY=0.5;entryDx=0;entryDy=0;entryPerimeter=0;exitX=1;exitY=0.5;exitDx=0;exitDy=0;" edge="1" parent="1" source="UmMrPSmnTauwYGMyU9Ws-28" target="UmMrPSmnTauwYGMyU9Ws-5">
          <mxGeometry width="50" height="50" relative="1" as="geometry">
            <mxPoint x="620" y="230" as="sourcePoint" />
            <mxPoint x="670" y="180" as="targetPoint" />
          </mxGeometry>
        </mxCell>
        <mxCell id="GBGF587jGVmbTTjGobel-6" value="" style="endArrow=none;html=1;rounded=0;entryX=0.5;entryY=0.5;entryDx=0;entryDy=0;entryPerimeter=0;exitX=1;exitY=0.5;exitDx=0;exitDy=0;" edge="1" parent="1" source="UmMrPSmnTauwYGMyU9Ws-26" target="UmMrPSmnTauwYGMyU9Ws-5">
          <mxGeometry width="50" height="50" relative="1" as="geometry">
            <mxPoint x="630" y="240" as="sourcePoint" />
            <mxPoint x="680" y="190" as="targetPoint" />
          </mxGeometry>
        </mxCell>
        <mxCell id="GBGF587jGVmbTTjGobel-7" value="" style="endArrow=none;html=1;rounded=0;entryX=0.5;entryY=0.5;entryDx=0;entryDy=0;entryPerimeter=0;exitX=1;exitY=0.5;exitDx=0;exitDy=0;" edge="1" parent="1" source="UmMrPSmnTauwYGMyU9Ws-23" target="UmMrPSmnTauwYGMyU9Ws-5">
          <mxGeometry width="50" height="50" relative="1" as="geometry">
            <mxPoint x="640" y="250" as="sourcePoint" />
            <mxPoint x="690" y="200" as="targetPoint" />
          </mxGeometry>
        </mxCell>
        <mxCell id="GBGF587jGVmbTTjGobel-8" value="" style="endArrow=none;html=1;rounded=0;entryX=0.5;entryY=0.5;entryDx=0;entryDy=0;entryPerimeter=0;exitX=1;exitY=0.5;exitDx=0;exitDy=0;" edge="1" parent="1" source="UmMrPSmnTauwYGMyU9Ws-49" target="UmMrPSmnTauwYGMyU9Ws-5">
          <mxGeometry width="50" height="50" relative="1" as="geometry">
            <mxPoint x="650" y="260" as="sourcePoint" />
            <mxPoint x="700" y="210" as="targetPoint" />
          </mxGeometry>
        </mxCell>
        <mxCell id="GBGF587jGVmbTTjGobel-9" value="" style="endArrow=none;html=1;rounded=0;entryX=0.5;entryY=0.5;entryDx=0;entryDy=0;entryPerimeter=0;exitX=1;exitY=0.5;exitDx=0;exitDy=0;" edge="1" parent="1" source="UmMrPSmnTauwYGMyU9Ws-49" target="UmMrPSmnTauwYGMyU9Ws-5">
          <mxGeometry width="50" height="50" relative="1" as="geometry">
            <mxPoint x="660" y="270" as="sourcePoint" />
            <mxPoint x="710" y="220" as="targetPoint" />
          </mxGeometry>
        </mxCell>
        <mxCell id="GBGF587jGVmbTTjGobel-10" value="" style="endArrow=none;html=1;rounded=0;entryX=0.5;entryY=0.5;entryDx=0;entryDy=0;entryPerimeter=0;exitX=1;exitY=0.5;exitDx=0;exitDy=0;" edge="1" parent="1" source="UmMrPSmnTauwYGMyU9Ws-30" target="UmMrPSmnTauwYGMyU9Ws-5">
          <mxGeometry width="50" height="50" relative="1" as="geometry">
            <mxPoint x="735" y="-75" as="sourcePoint" />
            <mxPoint x="1590" y="-50" as="targetPoint" />
          </mxGeometry>
        </mxCell>
        <mxCell id="UmMrPSmnTauwYGMyU9Ws-29" value="&lt;p class=&quot;MsoNormal&quot;&gt;Updating user profile&lt;/p&gt;" style="ellipse;whiteSpace=wrap;html=1;shadow=1;strokeColor=default;strokeWidth=3;align=center;verticalAlign=middle;fontFamily=Helvetica;fontSize=14;fontColor=default;fillColor=default;labelBorderColor=none;textShadow=1;fontStyle=1" parent="1" vertex="1">
          <mxGeometry x="490" y="270" width="140" height="70" as="geometry" />
        </mxCell>
        <mxCell id="GBGF587jGVmbTTjGobel-11" value="" style="endArrow=none;html=1;rounded=0;entryX=0.5;entryY=0.5;entryDx=0;entryDy=0;entryPerimeter=0;exitX=1;exitY=0.5;exitDx=0;exitDy=0;" edge="1" parent="1" source="UmMrPSmnTauwYGMyU9Ws-27" target="UmMrPSmnTauwYGMyU9Ws-5">
          <mxGeometry width="50" height="50" relative="1" as="geometry">
            <mxPoint x="1030" y="-55" as="sourcePoint" />
            <mxPoint x="1590" y="-50" as="targetPoint" />
          </mxGeometry>
        </mxCell>
        <mxCell id="UmMrPSmnTauwYGMyU9Ws-28" value="&lt;p class=&quot;MsoNormal&quot;&gt;Change password&lt;/p&gt;" style="ellipse;whiteSpace=wrap;html=1;shadow=1;strokeColor=default;strokeWidth=3;align=center;verticalAlign=middle;fontFamily=Helvetica;fontSize=14;fontColor=default;fillColor=default;labelBorderColor=none;textShadow=1;fontStyle=1" parent="1" vertex="1">
          <mxGeometry x="440" y="130" width="140" height="70" as="geometry" />
        </mxCell>
        <mxCell id="UmMrPSmnTauwYGMyU9Ws-49" value="&lt;p class=&quot;MsoNormal&quot;&gt;Accept one bid to assign project&lt;/p&gt;" style="ellipse;whiteSpace=wrap;html=1;shadow=1;strokeColor=default;strokeWidth=3;align=center;verticalAlign=middle;fontFamily=Helvetica;fontSize=14;fontColor=default;fillColor=default;labelBorderColor=none;textShadow=1;fontStyle=1" parent="1" vertex="1">
          <mxGeometry x="1070" y="760" width="140" height="70" as="geometry" />
        </mxCell>
        <mxCell id="GBGF587jGVmbTTjGobel-14" value="" style="endArrow=none;html=1;rounded=0;entryX=0.5;entryY=0.5;entryDx=0;entryDy=0;entryPerimeter=0;exitX=1;exitY=0.5;exitDx=0;exitDy=0;" edge="1" parent="1" source="UmMrPSmnTauwYGMyU9Ws-48" target="UmMrPSmnTauwYGMyU9Ws-5">
          <mxGeometry width="50" height="50" relative="1" as="geometry">
            <mxPoint x="670" y="280" as="sourcePoint" />
            <mxPoint x="720" y="230" as="targetPoint" />
          </mxGeometry>
        </mxCell>
        <mxCell id="GBGF587jGVmbTTjGobel-15" value="" style="endArrow=none;html=1;rounded=0;entryX=0.5;entryY=0.5;entryDx=0;entryDy=0;entryPerimeter=0;exitX=1;exitY=0.5;exitDx=0;exitDy=0;" edge="1" parent="1" source="UmMrPSmnTauwYGMyU9Ws-45" target="UmMrPSmnTauwYGMyU9Ws-5">
          <mxGeometry width="50" height="50" relative="1" as="geometry">
            <mxPoint x="810" y="240" as="sourcePoint" />
            <mxPoint x="730" y="240" as="targetPoint" />
          </mxGeometry>
        </mxCell>
        <mxCell id="GBGF587jGVmbTTjGobel-16" value="" style="endArrow=none;html=1;rounded=0;entryX=0.5;entryY=0.5;entryDx=0;entryDy=0;entryPerimeter=0;exitX=1;exitY=0.5;exitDx=0;exitDy=0;" edge="1" parent="1" source="UmMrPSmnTauwYGMyU9Ws-44" target="UmMrPSmnTauwYGMyU9Ws-5">
          <mxGeometry width="50" height="50" relative="1" as="geometry">
            <mxPoint x="690" y="300" as="sourcePoint" />
            <mxPoint x="740" y="250" as="targetPoint" />
          </mxGeometry>
        </mxCell>
        <mxCell id="GBGF587jGVmbTTjGobel-17" value="" style="endArrow=none;html=1;rounded=0;entryX=0.5;entryY=0.5;entryDx=0;entryDy=0;entryPerimeter=0;exitX=1;exitY=0.5;exitDx=0;exitDy=0;" edge="1" parent="1" source="UmMrPSmnTauwYGMyU9Ws-43" target="UmMrPSmnTauwYGMyU9Ws-5">
          <mxGeometry width="50" height="50" relative="1" as="geometry">
            <mxPoint x="700" y="310" as="sourcePoint" />
            <mxPoint x="750" y="260" as="targetPoint" />
          </mxGeometry>
        </mxCell>
        <mxCell id="GBGF587jGVmbTTjGobel-18" value="" style="endArrow=none;html=1;rounded=0;entryX=0.5;entryY=0.5;entryDx=0;entryDy=0;entryPerimeter=0;exitX=1;exitY=0.5;exitDx=0;exitDy=0;" edge="1" parent="1" source="UmMrPSmnTauwYGMyU9Ws-40" target="UmMrPSmnTauwYGMyU9Ws-5">
          <mxGeometry width="50" height="50" relative="1" as="geometry">
            <mxPoint x="710" y="320" as="sourcePoint" />
            <mxPoint x="760" y="270" as="targetPoint" />
          </mxGeometry>
        </mxCell>
        <mxCell id="GBGF587jGVmbTTjGobel-19" value="" style="endArrow=none;html=1;rounded=0;entryX=0.5;entryY=0.5;entryDx=0;entryDy=0;entryPerimeter=0;exitX=1;exitY=0.5;exitDx=0;exitDy=0;" edge="1" parent="1" source="UmMrPSmnTauwYGMyU9Ws-38" target="UmMrPSmnTauwYGMyU9Ws-5">
          <mxGeometry width="50" height="50" relative="1" as="geometry">
            <mxPoint x="720" y="330" as="sourcePoint" />
            <mxPoint x="770" y="280" as="targetPoint" />
          </mxGeometry>
        </mxCell>
        <mxCell id="GBGF587jGVmbTTjGobel-20" value="" style="endArrow=none;html=1;rounded=0;entryX=0.5;entryY=0.5;entryDx=0;entryDy=0;entryPerimeter=0;exitX=1;exitY=0.5;exitDx=0;exitDy=0;" edge="1" parent="1" source="UmMrPSmnTauwYGMyU9Ws-37" target="UmMrPSmnTauwYGMyU9Ws-5">
          <mxGeometry width="50" height="50" relative="1" as="geometry">
            <mxPoint x="730" y="340" as="sourcePoint" />
            <mxPoint x="780" y="290" as="targetPoint" />
          </mxGeometry>
        </mxCell>
        <mxCell id="GBGF587jGVmbTTjGobel-21" value="" style="endArrow=none;html=1;rounded=0;entryX=0.5;entryY=0.5;entryDx=0;entryDy=0;entryPerimeter=0;exitX=1;exitY=0.5;exitDx=0;exitDy=0;" edge="1" parent="1" source="UmMrPSmnTauwYGMyU9Ws-36" target="UmMrPSmnTauwYGMyU9Ws-5">
          <mxGeometry width="50" height="50" relative="1" as="geometry">
            <mxPoint x="740" y="350" as="sourcePoint" />
            <mxPoint x="790" y="300" as="targetPoint" />
          </mxGeometry>
        </mxCell>
        <mxCell id="GBGF587jGVmbTTjGobel-22" value="" style="endArrow=none;html=1;rounded=0;entryX=0.5;entryY=0.5;entryDx=0;entryDy=0;entryPerimeter=0;exitX=1;exitY=0.5;exitDx=0;exitDy=0;" edge="1" parent="1" source="UmMrPSmnTauwYGMyU9Ws-35" target="UmMrPSmnTauwYGMyU9Ws-5">
          <mxGeometry width="50" height="50" relative="1" as="geometry">
            <mxPoint x="750" y="360" as="sourcePoint" />
            <mxPoint x="800" y="310" as="targetPoint" />
          </mxGeometry>
        </mxCell>
        <mxCell id="GBGF587jGVmbTTjGobel-23" value="" style="endArrow=none;html=1;rounded=0;entryX=0.5;entryY=0.5;entryDx=0;entryDy=0;entryPerimeter=0;exitX=1;exitY=0.5;exitDx=0;exitDy=0;" edge="1" parent="1" source="UmMrPSmnTauwYGMyU9Ws-32" target="UmMrPSmnTauwYGMyU9Ws-5">
          <mxGeometry width="50" height="50" relative="1" as="geometry">
            <mxPoint x="760" y="370" as="sourcePoint" />
            <mxPoint x="810" y="320" as="targetPoint" />
          </mxGeometry>
        </mxCell>
        <mxCell id="GBGF587jGVmbTTjGobel-24" value="" style="endArrow=none;html=1;rounded=0;entryX=0.5;entryY=0.5;entryDx=0;entryDy=0;entryPerimeter=0;exitX=1;exitY=0.5;exitDx=0;exitDy=0;" edge="1" parent="1" source="UmMrPSmnTauwYGMyU9Ws-21" target="UmMrPSmnTauwYGMyU9Ws-5">
          <mxGeometry width="50" height="50" relative="1" as="geometry">
            <mxPoint x="770" y="380" as="sourcePoint" />
            <mxPoint x="820" y="330" as="targetPoint" />
          </mxGeometry>
        </mxCell>
        <mxCell id="GBGF587jGVmbTTjGobel-25" value="" style="endArrow=none;html=1;rounded=0;entryX=0.5;entryY=0.5;entryDx=0;entryDy=0;entryPerimeter=0;exitX=1;exitY=0.5;exitDx=0;exitDy=0;" edge="1" parent="1" source="UmMrPSmnTauwYGMyU9Ws-19" target="UmMrPSmnTauwYGMyU9Ws-5">
          <mxGeometry width="50" height="50" relative="1" as="geometry">
            <mxPoint x="780" y="390" as="sourcePoint" />
            <mxPoint x="830" y="340" as="targetPoint" />
          </mxGeometry>
        </mxCell>
        <mxCell id="GBGF587jGVmbTTjGobel-26" value="" style="endArrow=none;html=1;rounded=0;entryX=0.5;entryY=0.5;entryDx=0;entryDy=0;entryPerimeter=0;exitX=1;exitY=0.5;exitDx=0;exitDy=0;" edge="1" parent="1" source="UmMrPSmnTauwYGMyU9Ws-47" target="UmMrPSmnTauwYGMyU9Ws-5">
          <mxGeometry width="50" height="50" relative="1" as="geometry">
            <mxPoint x="790" y="400" as="sourcePoint" />
            <mxPoint x="840" y="350" as="targetPoint" />
          </mxGeometry>
        </mxCell>
        <mxCell id="GBGF587jGVmbTTjGobel-27" value="" style="endArrow=none;html=1;rounded=0;entryX=0.5;entryY=0.5;entryDx=0;entryDy=0;entryPerimeter=0;exitX=1;exitY=0.5;exitDx=0;exitDy=0;" edge="1" parent="1" source="UmMrPSmnTauwYGMyU9Ws-14" target="UmMrPSmnTauwYGMyU9Ws-5">
          <mxGeometry width="50" height="50" relative="1" as="geometry">
            <mxPoint x="800" y="410" as="sourcePoint" />
            <mxPoint x="850" y="360" as="targetPoint" />
          </mxGeometry>
        </mxCell>
        <mxCell id="GBGF587jGVmbTTjGobel-28" value="" style="endArrow=none;html=1;rounded=0;entryX=0.5;entryY=0.5;entryDx=0;entryDy=0;entryPerimeter=0;exitX=1;exitY=0.5;exitDx=0;exitDy=0;" edge="1" parent="1" source="UmMrPSmnTauwYGMyU9Ws-50" target="UmMrPSmnTauwYGMyU9Ws-5">
          <mxGeometry width="50" height="50" relative="1" as="geometry">
            <mxPoint x="810" y="420" as="sourcePoint" />
            <mxPoint x="860" y="370" as="targetPoint" />
          </mxGeometry>
        </mxCell>
        <mxCell id="GBGF587jGVmbTTjGobel-30" value="" style="endArrow=none;html=1;rounded=0;entryX=0.5;entryY=0.5;entryDx=0;entryDy=0;entryPerimeter=0;exitX=0;exitY=0.5;exitDx=0;exitDy=0;" edge="1" parent="1" source="UmMrPSmnTauwYGMyU9Ws-31" target="UmMrPSmnTauwYGMyU9Ws-1">
          <mxGeometry width="50" height="50" relative="1" as="geometry">
            <mxPoint x="830" y="350" as="sourcePoint" />
            <mxPoint x="880" y="300" as="targetPoint" />
          </mxGeometry>
        </mxCell>
        <mxCell id="GBGF587jGVmbTTjGobel-31" value="" style="endArrow=none;html=1;rounded=0;entryX=0.5;entryY=0.5;entryDx=0;entryDy=0;entryPerimeter=0;exitX=0;exitY=1;exitDx=0;exitDy=0;" edge="1" parent="1" source="UmMrPSmnTauwYGMyU9Ws-30" target="UmMrPSmnTauwYGMyU9Ws-1">
          <mxGeometry width="50" height="50" relative="1" as="geometry">
            <mxPoint x="620" y="150" as="sourcePoint" />
            <mxPoint x="670" y="100" as="targetPoint" />
          </mxGeometry>
        </mxCell>
        <mxCell id="GBGF587jGVmbTTjGobel-32" value="" style="endArrow=none;html=1;rounded=0;entryX=0.5;entryY=0.5;entryDx=0;entryDy=0;entryPerimeter=0;exitX=0;exitY=0.5;exitDx=0;exitDy=0;" edge="1" parent="1" source="UmMrPSmnTauwYGMyU9Ws-29" target="UmMrPSmnTauwYGMyU9Ws-1">
          <mxGeometry width="50" height="50" relative="1" as="geometry">
            <mxPoint x="670" y="270" as="sourcePoint" />
            <mxPoint x="720" y="220" as="targetPoint" />
          </mxGeometry>
        </mxCell>
        <mxCell id="GBGF587jGVmbTTjGobel-33" value="" style="endArrow=none;html=1;rounded=0;entryX=0.5;entryY=0.5;entryDx=0;entryDy=0;entryPerimeter=0;exitX=0;exitY=0.5;exitDx=0;exitDy=0;" edge="1" parent="1" source="UmMrPSmnTauwYGMyU9Ws-27" target="UmMrPSmnTauwYGMyU9Ws-1">
          <mxGeometry width="50" height="50" relative="1" as="geometry">
            <mxPoint x="750" y="330" as="sourcePoint" />
            <mxPoint x="240" y="60" as="targetPoint" />
          </mxGeometry>
        </mxCell>
        <mxCell id="GBGF587jGVmbTTjGobel-34" value="" style="endArrow=none;html=1;rounded=0;exitX=0.5;exitY=0.5;exitDx=0;exitDy=0;exitPerimeter=0;entryX=0;entryY=0.5;entryDx=0;entryDy=0;" edge="1" parent="1" source="UmMrPSmnTauwYGMyU9Ws-1" target="UmMrPSmnTauwYGMyU9Ws-28">
          <mxGeometry width="50" height="50" relative="1" as="geometry">
            <mxPoint x="790" y="220" as="sourcePoint" />
            <mxPoint x="840" y="170" as="targetPoint" />
          </mxGeometry>
        </mxCell>
        <mxCell id="GBGF587jGVmbTTjGobel-35" value="" style="endArrow=none;html=1;rounded=0;exitX=0.5;exitY=0.5;exitDx=0;exitDy=0;exitPerimeter=0;entryX=0;entryY=0.5;entryDx=0;entryDy=0;" edge="1" parent="1" source="UmMrPSmnTauwYGMyU9Ws-1" target="UmMrPSmnTauwYGMyU9Ws-25">
          <mxGeometry width="50" height="50" relative="1" as="geometry">
            <mxPoint x="550" y="200" as="sourcePoint" />
            <mxPoint x="600" y="150" as="targetPoint" />
          </mxGeometry>
        </mxCell>
        <mxCell id="GBGF587jGVmbTTjGobel-36" value="" style="endArrow=none;html=1;rounded=0;exitX=0.5;exitY=0.5;exitDx=0;exitDy=0;exitPerimeter=0;entryX=0;entryY=0.5;entryDx=0;entryDy=0;" edge="1" parent="1" source="UmMrPSmnTauwYGMyU9Ws-1" target="UmMrPSmnTauwYGMyU9Ws-24">
          <mxGeometry width="50" height="50" relative="1" as="geometry">
            <mxPoint x="610" y="170" as="sourcePoint" />
            <mxPoint x="660" y="120" as="targetPoint" />
          </mxGeometry>
        </mxCell>
        <mxCell id="GBGF587jGVmbTTjGobel-37" value="" style="endArrow=none;html=1;rounded=0;entryX=0.5;entryY=0.5;entryDx=0;entryDy=0;entryPerimeter=0;exitX=0;exitY=0.5;exitDx=0;exitDy=0;" edge="1" parent="1" source="UmMrPSmnTauwYGMyU9Ws-22" target="UmMrPSmnTauwYGMyU9Ws-1">
          <mxGeometry width="50" height="50" relative="1" as="geometry">
            <mxPoint x="610" y="450" as="sourcePoint" />
            <mxPoint x="660" y="400" as="targetPoint" />
          </mxGeometry>
        </mxCell>
        <mxCell id="GBGF587jGVmbTTjGobel-38" value="" style="endArrow=none;html=1;rounded=0;entryX=0.5;entryY=0.5;entryDx=0;entryDy=0;entryPerimeter=0;exitX=0;exitY=0.5;exitDx=0;exitDy=0;" edge="1" parent="1" source="UmMrPSmnTauwYGMyU9Ws-51" target="UmMrPSmnTauwYGMyU9Ws-1">
          <mxGeometry width="50" height="50" relative="1" as="geometry">
            <mxPoint x="660" y="460" as="sourcePoint" />
            <mxPoint x="710" y="410" as="targetPoint" />
          </mxGeometry>
        </mxCell>
        <mxCell id="GBGF587jGVmbTTjGobel-39" value="" style="endArrow=none;html=1;rounded=0;exitX=0.5;exitY=0.5;exitDx=0;exitDy=0;exitPerimeter=0;entryX=0;entryY=0.5;entryDx=0;entryDy=0;" edge="1" parent="1" source="UmMrPSmnTauwYGMyU9Ws-1" target="UmMrPSmnTauwYGMyU9Ws-44">
          <mxGeometry width="50" height="50" relative="1" as="geometry">
            <mxPoint x="700" y="430" as="sourcePoint" />
            <mxPoint x="750" y="380" as="targetPoint" />
          </mxGeometry>
        </mxCell>
        <mxCell id="GBGF587jGVmbTTjGobel-40" value="" style="endArrow=none;html=1;rounded=0;entryX=0.5;entryY=0.5;entryDx=0;entryDy=0;entryPerimeter=0;exitX=0;exitY=0.5;exitDx=0;exitDy=0;" edge="1" parent="1" source="UmMrPSmnTauwYGMyU9Ws-46" target="UmMrPSmnTauwYGMyU9Ws-1">
          <mxGeometry width="50" height="50" relative="1" as="geometry">
            <mxPoint x="700" y="390" as="sourcePoint" />
            <mxPoint x="750" y="340" as="targetPoint" />
          </mxGeometry>
        </mxCell>
        <mxCell id="GBGF587jGVmbTTjGobel-41" value="" style="endArrow=none;html=1;rounded=0;exitX=0.5;exitY=0.5;exitDx=0;exitDy=0;exitPerimeter=0;entryX=0;entryY=0.5;entryDx=0;entryDy=0;" edge="1" parent="1" source="UmMrPSmnTauwYGMyU9Ws-1" target="UmMrPSmnTauwYGMyU9Ws-42">
          <mxGeometry width="50" height="50" relative="1" as="geometry">
            <mxPoint x="700" y="390" as="sourcePoint" />
            <mxPoint x="750" y="340" as="targetPoint" />
          </mxGeometry>
        </mxCell>
        <mxCell id="GBGF587jGVmbTTjGobel-42" value="" style="endArrow=none;html=1;rounded=0;exitX=0.5;exitY=0.5;exitDx=0;exitDy=0;exitPerimeter=0;entryX=0;entryY=0.5;entryDx=0;entryDy=0;" edge="1" parent="1" source="UmMrPSmnTauwYGMyU9Ws-1" target="UmMrPSmnTauwYGMyU9Ws-40">
          <mxGeometry width="50" height="50" relative="1" as="geometry">
            <mxPoint x="700" y="550" as="sourcePoint" />
            <mxPoint x="750" y="500" as="targetPoint" />
          </mxGeometry>
        </mxCell>
        <mxCell id="GBGF587jGVmbTTjGobel-43" value="" style="endArrow=none;html=1;rounded=0;exitX=0;exitY=0.5;exitDx=0;exitDy=0;entryX=0.5;entryY=0.5;entryDx=0;entryDy=0;entryPerimeter=0;" edge="1" parent="1" source="UmMrPSmnTauwYGMyU9Ws-38" target="UmMrPSmnTauwYGMyU9Ws-1">
          <mxGeometry width="50" height="50" relative="1" as="geometry">
            <mxPoint x="700" y="230" as="sourcePoint" />
            <mxPoint x="750" y="180" as="targetPoint" />
          </mxGeometry>
        </mxCell>
        <mxCell id="GBGF587jGVmbTTjGobel-44" value="" style="endArrow=none;html=1;rounded=0;entryX=0;entryY=0.5;entryDx=0;entryDy=0;exitX=0.5;exitY=0.5;exitDx=0;exitDy=0;exitPerimeter=0;" edge="1" parent="1" source="UmMrPSmnTauwYGMyU9Ws-1" target="UmMrPSmnTauwYGMyU9Ws-37">
          <mxGeometry width="50" height="50" relative="1" as="geometry">
            <mxPoint x="700" y="570" as="sourcePoint" />
            <mxPoint x="750" y="520" as="targetPoint" />
          </mxGeometry>
        </mxCell>
        <mxCell id="GBGF587jGVmbTTjGobel-45" value="" style="endArrow=none;html=1;rounded=0;entryX=0.5;entryY=0.5;entryDx=0;entryDy=0;entryPerimeter=0;exitX=0;exitY=0.5;exitDx=0;exitDy=0;" edge="1" parent="1" source="UmMrPSmnTauwYGMyU9Ws-34" target="UmMrPSmnTauwYGMyU9Ws-1">
          <mxGeometry width="50" height="50" relative="1" as="geometry">
            <mxPoint x="700" y="270" as="sourcePoint" />
            <mxPoint x="750" y="220" as="targetPoint" />
          </mxGeometry>
        </mxCell>
        <mxCell id="GBGF587jGVmbTTjGobel-46" value="" style="endArrow=none;html=1;rounded=0;exitX=0.5;exitY=0.5;exitDx=0;exitDy=0;exitPerimeter=0;entryX=0;entryY=0.5;entryDx=0;entryDy=0;" edge="1" parent="1" source="UmMrPSmnTauwYGMyU9Ws-1" target="UmMrPSmnTauwYGMyU9Ws-33">
          <mxGeometry width="50" height="50" relative="1" as="geometry">
            <mxPoint x="700" y="340" as="sourcePoint" />
            <mxPoint x="750" y="290" as="targetPoint" />
          </mxGeometry>
        </mxCell>
        <mxCell id="GBGF587jGVmbTTjGobel-47" value="" style="endArrow=none;html=1;rounded=0;exitX=0.339;exitY=0.107;exitDx=0;exitDy=0;entryX=0.5;entryY=0.5;entryDx=0;entryDy=0;entryPerimeter=0;exitPerimeter=0;" edge="1" parent="1" source="UmMrPSmnTauwYGMyU9Ws-20" target="UmMrPSmnTauwYGMyU9Ws-1">
          <mxGeometry width="50" height="50" relative="1" as="geometry">
            <mxPoint x="700" y="450" as="sourcePoint" />
            <mxPoint x="750" y="400" as="targetPoint" />
          </mxGeometry>
        </mxCell>
        <mxCell id="GBGF587jGVmbTTjGobel-48" value="" style="endArrow=none;html=1;rounded=0;exitX=0;exitY=0.5;exitDx=0;exitDy=0;entryX=0.5;entryY=0.5;entryDx=0;entryDy=0;entryPerimeter=0;" edge="1" parent="1" source="UmMrPSmnTauwYGMyU9Ws-19" target="UmMrPSmnTauwYGMyU9Ws-1">
          <mxGeometry width="50" height="50" relative="1" as="geometry">
            <mxPoint x="700" y="620" as="sourcePoint" />
            <mxPoint x="750" y="570" as="targetPoint" />
          </mxGeometry>
        </mxCell>
        <mxCell id="GBGF587jGVmbTTjGobel-49" value="" style="endArrow=none;html=1;rounded=0;exitX=0;exitY=0.5;exitDx=0;exitDy=0;entryX=0.5;entryY=0.5;entryDx=0;entryDy=0;entryPerimeter=0;" edge="1" parent="1" source="UmMrPSmnTauwYGMyU9Ws-47" target="UmMrPSmnTauwYGMyU9Ws-1">
          <mxGeometry width="50" height="50" relative="1" as="geometry">
            <mxPoint x="700" y="620" as="sourcePoint" />
            <mxPoint x="750" y="570" as="targetPoint" />
          </mxGeometry>
        </mxCell>
        <mxCell id="GBGF587jGVmbTTjGobel-50" value="" style="endArrow=none;html=1;rounded=0;exitX=0.5;exitY=0.5;exitDx=0;exitDy=0;exitPerimeter=0;entryX=0;entryY=0.5;entryDx=0;entryDy=0;" edge="1" parent="1" source="UmMrPSmnTauwYGMyU9Ws-1" target="UmMrPSmnTauwYGMyU9Ws-13">
          <mxGeometry width="50" height="50" relative="1" as="geometry">
            <mxPoint x="700" y="250" as="sourcePoint" />
            <mxPoint x="250" y="530" as="targetPoint" />
          </mxGeometry>
        </mxCell>
        <mxCell id="GBGF587jGVmbTTjGobel-51" value="" style="endArrow=none;html=1;rounded=0;entryX=0;entryY=0.5;entryDx=0;entryDy=0;exitX=0.5;exitY=0.5;exitDx=0;exitDy=0;exitPerimeter=0;" edge="1" parent="1" source="UmMrPSmnTauwYGMyU9Ws-1" target="UmMrPSmnTauwYGMyU9Ws-12">
          <mxGeometry width="50" height="50" relative="1" as="geometry">
            <mxPoint x="700" y="430" as="sourcePoint" />
            <mxPoint x="750" y="380" as="targetPoint" />
          </mxGeometry>
        </mxCell>
        <mxCell id="GBGF587jGVmbTTjGobel-53" value="" style="endArrow=none;html=1;rounded=0;entryX=0;entryY=0.5;entryDx=0;entryDy=0;exitX=0.5;exitY=0.5;exitDx=0;exitDy=0;exitPerimeter=0;" edge="1" parent="1" source="UmMrPSmnTauwYGMyU9Ws-3" target="UmMrPSmnTauwYGMyU9Ws-39">
          <mxGeometry width="50" height="50" relative="1" as="geometry">
            <mxPoint x="140" y="1700" as="sourcePoint" />
            <mxPoint x="190" y="1650" as="targetPoint" />
          </mxGeometry>
        </mxCell>
        <mxCell id="GBGF587jGVmbTTjGobel-54" value="" style="endArrow=none;html=1;rounded=0;entryX=0;entryY=0.5;entryDx=0;entryDy=0;exitX=0.5;exitY=0.5;exitDx=0;exitDy=0;exitPerimeter=0;" edge="1" parent="1" source="UmMrPSmnTauwYGMyU9Ws-3" target="UmMrPSmnTauwYGMyU9Ws-18">
          <mxGeometry width="50" height="50" relative="1" as="geometry">
            <mxPoint x="100" y="1760" as="sourcePoint" />
            <mxPoint x="150" y="1710" as="targetPoint" />
          </mxGeometry>
        </mxCell>
        <mxCell id="GBGF587jGVmbTTjGobel-55" value="" style="endArrow=none;html=1;rounded=0;entryX=0;entryY=0.5;entryDx=0;entryDy=0;exitX=0.5;exitY=0.5;exitDx=0;exitDy=0;exitPerimeter=0;" edge="1" parent="1" source="UmMrPSmnTauwYGMyU9Ws-3" target="UmMrPSmnTauwYGMyU9Ws-17">
          <mxGeometry width="50" height="50" relative="1" as="geometry">
            <mxPoint x="430" y="1840" as="sourcePoint" />
            <mxPoint x="480" y="1790" as="targetPoint" />
          </mxGeometry>
        </mxCell>
        <mxCell id="GBGF587jGVmbTTjGobel-56" value="" style="endArrow=none;html=1;rounded=0;entryX=0;entryY=0.5;entryDx=0;entryDy=0;exitX=0.5;exitY=0.5;exitDx=0;exitDy=0;exitPerimeter=0;" edge="1" parent="1" source="UmMrPSmnTauwYGMyU9Ws-3" target="UmMrPSmnTauwYGMyU9Ws-16">
          <mxGeometry width="50" height="50" relative="1" as="geometry">
            <mxPoint x="-490" y="1680" as="sourcePoint" />
            <mxPoint x="230" y="1790" as="targetPoint" />
          </mxGeometry>
        </mxCell>
        <mxCell id="GBGF587jGVmbTTjGobel-57" value="" style="endArrow=none;html=1;rounded=0;entryX=0;entryY=0.5;entryDx=0;entryDy=0;exitX=0.5;exitY=0.5;exitDx=0;exitDy=0;exitPerimeter=0;" edge="1" parent="1" source="UmMrPSmnTauwYGMyU9Ws-3" target="UmMrPSmnTauwYGMyU9Ws-15">
          <mxGeometry width="50" height="50" relative="1" as="geometry">
            <mxPoint x="240" y="1830" as="sourcePoint" />
            <mxPoint x="290" y="1780" as="targetPoint" />
          </mxGeometry>
        </mxCell>
        <mxCell id="GBGF587jGVmbTTjGobel-58" value="" style="endArrow=none;html=1;rounded=0;entryX=0;entryY=0.5;entryDx=0;entryDy=0;exitX=1;exitY=0.5;exitDx=0;exitDy=0;" edge="1" parent="1" source="UmMrPSmnTauwYGMyU9Ws-41" target="UmMrPSmnTauwYGMyU9Ws-6">
          <mxGeometry width="50" height="50" relative="1" as="geometry">
            <mxPoint x="1010" y="1680" as="sourcePoint" />
            <mxPoint x="1060" y="1630" as="targetPoint" />
          </mxGeometry>
        </mxCell>
        <mxCell id="GBGF587jGVmbTTjGobel-59" value="" style="endArrow=none;html=1;rounded=0;entryX=0;entryY=0.5;entryDx=0;entryDy=0;exitX=0.5;exitY=0.5;exitDx=0;exitDy=0;exitPerimeter=0;" edge="1" parent="1" source="UmMrPSmnTauwYGMyU9Ws-1" target="UmMrPSmnTauwYGMyU9Ws-36">
          <mxGeometry width="50" height="50" relative="1" as="geometry">
            <mxPoint x="220" y="600" as="sourcePoint" />
            <mxPoint x="270" y="550" as="targetPoint" />
          </mxGeometry>
        </mxCell>
        <mxCell id="GBGF587jGVmbTTjGobel-60" value="" style="endArrow=none;html=1;rounded=0;entryX=0;entryY=0.5;entryDx=0;entryDy=0;exitX=1;exitY=0.5;exitDx=0;exitDy=0;" edge="1" parent="1" source="UmMrPSmnTauwYGMyU9Ws-36" target="UmMrPSmnTauwYGMyU9Ws-7">
          <mxGeometry width="50" height="50" relative="1" as="geometry">
            <mxPoint x="1160" y="1450" as="sourcePoint" />
            <mxPoint x="1210" y="1400" as="targetPoint" />
          </mxGeometry>
        </mxCell>
        <mxCell id="GBGF587jGVmbTTjGobel-61" style="edgeStyle=orthogonalEdgeStyle;rounded=0;orthogonalLoop=1;jettySize=auto;html=1;exitX=0.5;exitY=0.5;exitDx=0;exitDy=0;exitPerimeter=0;entryX=0.498;entryY=0.554;entryDx=0;entryDy=0;entryPerimeter=0;" edge="1" parent="1" source="UmMrPSmnTauwYGMyU9Ws-3" target="UmMrPSmnTauwYGMyU9Ws-3">
          <mxGeometry relative="1" as="geometry" />
        </mxCell>
        <mxCell id="GBGF587jGVmbTTjGobel-69" value="" style="endArrow=classic;html=1;rounded=0;endFill=1;fontSize=18;strokeWidth=3;shadow=0;exitX=0.5;exitY=1;exitDx=0;exitDy=0;entryX=0.5;entryY=0;entryDx=0;entryDy=0;" edge="1" parent="1" source="UmMrPSmnTauwYGMyU9Ws-31" target="UmMrPSmnTauwYGMyU9Ws-27">
          <mxGeometry relative="1" as="geometry">
            <mxPoint x="1160" as="sourcePoint" />
            <mxPoint x="1260" as="targetPoint" />
          </mxGeometry>
        </mxCell>
        <mxCell id="GBGF587jGVmbTTjGobel-70" value="&lt;font style=&quot;font-size: 15px;&quot;&gt;&amp;lt;&amp;lt;includes&amp;gt;&amp;gt;&lt;/font&gt;" style="edgeLabel;resizable=0;html=1;;align=center;verticalAlign=middle;" connectable="0" vertex="1" parent="GBGF587jGVmbTTjGobel-69">
          <mxGeometry relative="1" as="geometry" />
        </mxCell>
        <mxCell id="GBGF587jGVmbTTjGobel-72" value="" style="endArrow=classic;html=1;rounded=0;endFill=1;fontSize=18;strokeWidth=3;shadow=0;exitX=0.5;exitY=1;exitDx=0;exitDy=0;entryX=0;entryY=0;entryDx=0;entryDy=0;" edge="1" parent="1" source="UmMrPSmnTauwYGMyU9Ws-28" target="UmMrPSmnTauwYGMyU9Ws-27">
          <mxGeometry relative="1" as="geometry">
            <mxPoint x="770" y="-70" as="sourcePoint" />
            <mxPoint x="890" y="120" as="targetPoint" />
          </mxGeometry>
        </mxCell>
        <mxCell id="GBGF587jGVmbTTjGobel-73" value="&lt;font style=&quot;font-size: 15px;&quot;&gt;&amp;lt;&amp;lt;includes&amp;gt;&amp;gt;&lt;/font&gt;" style="edgeLabel;resizable=0;html=1;;align=center;verticalAlign=middle;" connectable="0" vertex="1" parent="GBGF587jGVmbTTjGobel-72">
          <mxGeometry relative="1" as="geometry" />
        </mxCell>
        <mxCell id="GBGF587jGVmbTTjGobel-74" value="" style="endArrow=classic;html=1;rounded=0;endFill=1;fontSize=18;strokeWidth=3;shadow=0;exitX=0.5;exitY=1;exitDx=0;exitDy=0;entryX=0.292;entryY=0.049;entryDx=0;entryDy=0;entryPerimeter=0;" edge="1" parent="1" source="UmMrPSmnTauwYGMyU9Ws-30" target="UmMrPSmnTauwYGMyU9Ws-27">
          <mxGeometry relative="1" as="geometry">
            <mxPoint x="770" y="-70" as="sourcePoint" />
            <mxPoint x="910" y="170" as="targetPoint" />
          </mxGeometry>
        </mxCell>
        <mxCell id="GBGF587jGVmbTTjGobel-75" value="&lt;font style=&quot;font-size: 15px;&quot;&gt;&amp;lt;&amp;lt;includes&amp;gt;&amp;gt;&lt;/font&gt;" style="edgeLabel;resizable=0;html=1;;align=center;verticalAlign=middle;" connectable="0" vertex="1" parent="GBGF587jGVmbTTjGobel-74">
          <mxGeometry relative="1" as="geometry" />
        </mxCell>
        <mxCell id="GBGF587jGVmbTTjGobel-77" value="" style="endArrow=classic;html=1;rounded=0;endFill=1;fontSize=18;strokeWidth=3;shadow=0;exitX=0;exitY=0.5;exitDx=0;exitDy=0;entryX=1;entryY=0.5;entryDx=0;entryDy=0;" edge="1" parent="1" source="UmMrPSmnTauwYGMyU9Ws-26" target="UmMrPSmnTauwYGMyU9Ws-30">
          <mxGeometry relative="1" as="geometry">
            <mxPoint x="770" y="-70" as="sourcePoint" />
            <mxPoint x="960" y="200" as="targetPoint" />
          </mxGeometry>
        </mxCell>
        <mxCell id="GBGF587jGVmbTTjGobel-78" value="&lt;font style=&quot;font-size: 15px;&quot;&gt;&amp;lt;&amp;lt;includes&amp;gt;&amp;gt;&lt;/font&gt;" style="edgeLabel;resizable=0;html=1;;align=center;verticalAlign=middle;" connectable="0" vertex="1" parent="GBGF587jGVmbTTjGobel-77">
          <mxGeometry relative="1" as="geometry" />
        </mxCell>
        <mxCell id="GBGF587jGVmbTTjGobel-79" value="" style="endArrow=classic;html=1;rounded=0;endFill=1;fontSize=18;strokeWidth=3;shadow=0;exitX=1;exitY=0;exitDx=0;exitDy=0;entryX=0;entryY=0;entryDx=0;entryDy=0;" edge="1" parent="1" source="UmMrPSmnTauwYGMyU9Ws-22" target="UmMrPSmnTauwYGMyU9Ws-30">
          <mxGeometry relative="1" as="geometry">
            <mxPoint x="780" y="-60" as="sourcePoint" />
            <mxPoint x="970" y="210" as="targetPoint" />
          </mxGeometry>
        </mxCell>
        <mxCell id="GBGF587jGVmbTTjGobel-80" value="&lt;font style=&quot;font-size: 15px;&quot;&gt;&amp;lt;&amp;lt;includes&amp;gt;&amp;gt;&lt;/font&gt;" style="edgeLabel;resizable=0;html=1;;align=center;verticalAlign=middle;" connectable="0" vertex="1" parent="GBGF587jGVmbTTjGobel-79">
          <mxGeometry relative="1" as="geometry" />
        </mxCell>
        <mxCell id="GBGF587jGVmbTTjGobel-81" value="" style="endArrow=classic;html=1;rounded=0;endFill=1;fontSize=18;strokeWidth=3;shadow=0;exitX=0.5;exitY=1;exitDx=0;exitDy=0;entryX=1;entryY=0;entryDx=0;entryDy=0;" edge="1" parent="1" source="UmMrPSmnTauwYGMyU9Ws-43" target="UmMrPSmnTauwYGMyU9Ws-41">
          <mxGeometry relative="1" as="geometry">
            <mxPoint x="850" y="1130" as="sourcePoint" />
            <mxPoint x="1040" y="1400" as="targetPoint" />
          </mxGeometry>
        </mxCell>
        <mxCell id="GBGF587jGVmbTTjGobel-82" value="&lt;font style=&quot;font-size: 15px;&quot;&gt;&amp;lt;&amp;lt;includes&amp;gt;&amp;gt;&lt;/font&gt;" style="edgeLabel;resizable=0;html=1;;align=center;verticalAlign=middle;" connectable="0" vertex="1" parent="GBGF587jGVmbTTjGobel-81">
          <mxGeometry relative="1" as="geometry" />
        </mxCell>
        <mxCell id="GBGF587jGVmbTTjGobel-84" value="" style="endArrow=classic;html=1;rounded=0;endFill=1;fontSize=18;strokeWidth=3;shadow=0;exitX=1;exitY=0.5;exitDx=0;exitDy=0;entryX=0;entryY=0.5;entryDx=0;entryDy=0;" edge="1" parent="1" source="UmMrPSmnTauwYGMyU9Ws-42" target="UmMrPSmnTauwYGMyU9Ws-41">
          <mxGeometry relative="1" as="geometry">
            <mxPoint x="1160" y="1285" as="sourcePoint" />
            <mxPoint x="919" y="1380" as="targetPoint" />
          </mxGeometry>
        </mxCell>
        <mxCell id="GBGF587jGVmbTTjGobel-85" value="&lt;font style=&quot;font-size: 15px;&quot;&gt;&amp;lt;&amp;lt;includes&amp;gt;&amp;gt;&lt;/font&gt;" style="edgeLabel;resizable=0;html=1;;align=center;verticalAlign=middle;" connectable="0" vertex="1" parent="GBGF587jGVmbTTjGobel-84">
          <mxGeometry relative="1" as="geometry" />
        </mxCell>
        <mxCell id="GBGF587jGVmbTTjGobel-86" value="" style="endArrow=classic;html=1;rounded=0;endFill=1;fontSize=18;strokeWidth=3;shadow=0;exitX=0.5;exitY=0;exitDx=0;exitDy=0;entryX=0.5;entryY=1;entryDx=0;entryDy=0;" edge="1" parent="1" source="UmMrPSmnTauwYGMyU9Ws-38" target="UmMrPSmnTauwYGMyU9Ws-30">
          <mxGeometry relative="1" as="geometry">
            <mxPoint x="439" y="100" as="sourcePoint" />
            <mxPoint x="621" y="10" as="targetPoint" />
          </mxGeometry>
        </mxCell>
        <mxCell id="GBGF587jGVmbTTjGobel-87" value="&lt;font style=&quot;font-size: 15px;&quot;&gt;&amp;lt;&amp;lt;includes&amp;gt;&amp;gt;&lt;/font&gt;" style="edgeLabel;resizable=0;html=1;;align=center;verticalAlign=middle;" connectable="0" vertex="1" parent="GBGF587jGVmbTTjGobel-86">
          <mxGeometry relative="1" as="geometry" />
        </mxCell>
        <mxCell id="GBGF587jGVmbTTjGobel-88" value="" style="endArrow=classic;html=1;rounded=0;endFill=1;fontSize=18;strokeWidth=3;shadow=0;exitX=0.375;exitY=0.036;exitDx=0;exitDy=0;entryX=0.5;entryY=1;entryDx=0;entryDy=0;exitPerimeter=0;" edge="1" parent="1" source="UmMrPSmnTauwYGMyU9Ws-37" target="UmMrPSmnTauwYGMyU9Ws-30">
          <mxGeometry relative="1" as="geometry">
            <mxPoint x="820" y="300" as="sourcePoint" />
            <mxPoint x="670" y="20" as="targetPoint" />
          </mxGeometry>
        </mxCell>
        <mxCell id="GBGF587jGVmbTTjGobel-89" value="&lt;font style=&quot;font-size: 15px;&quot;&gt;&amp;lt;&amp;lt;includes&amp;gt;&amp;gt;&lt;/font&gt;" style="edgeLabel;resizable=0;html=1;;align=center;verticalAlign=middle;" connectable="0" vertex="1" parent="GBGF587jGVmbTTjGobel-88">
          <mxGeometry relative="1" as="geometry" />
        </mxCell>
        <mxCell id="GBGF587jGVmbTTjGobel-90" value="" style="endArrow=classic;html=1;rounded=0;endFill=1;fontSize=18;strokeWidth=3;shadow=0;entryX=0.107;entryY=0.75;entryDx=0;entryDy=0;exitX=0.5;exitY=0;exitDx=0;exitDy=0;entryPerimeter=0;" edge="1" parent="1" source="UmMrPSmnTauwYGMyU9Ws-14" target="UmMrPSmnTauwYGMyU9Ws-26">
          <mxGeometry relative="1" as="geometry">
            <mxPoint x="1090" y="20" as="sourcePoint" />
            <mxPoint x="1275" y="280" as="targetPoint" />
          </mxGeometry>
        </mxCell>
        <mxCell id="GBGF587jGVmbTTjGobel-91" value="&lt;font style=&quot;font-size: 15px;&quot;&gt;&amp;lt;&amp;lt;Extends&amp;gt;&amp;gt;&lt;/font&gt;" style="edgeLabel;resizable=0;html=1;;align=center;verticalAlign=middle;" connectable="0" vertex="1" parent="GBGF587jGVmbTTjGobel-90">
          <mxGeometry relative="1" as="geometry" />
        </mxCell>
        <mxCell id="GBGF587jGVmbTTjGobel-92" value="" style="endArrow=classic;html=1;rounded=0;endFill=1;fontSize=18;strokeWidth=3;shadow=0;entryX=1;entryY=1;entryDx=0;entryDy=0;exitX=0.205;exitY=0.036;exitDx=0;exitDy=0;exitPerimeter=0;" edge="1" parent="1" source="UmMrPSmnTauwYGMyU9Ws-47" target="UmMrPSmnTauwYGMyU9Ws-30">
          <mxGeometry relative="1" as="geometry">
            <mxPoint x="1215" y="180" as="sourcePoint" />
            <mxPoint x="1275" y="53" as="targetPoint" />
          </mxGeometry>
        </mxCell>
        <mxCell id="GBGF587jGVmbTTjGobel-93" value="&lt;font style=&quot;font-size: 15px;&quot;&gt;&amp;lt;&amp;lt;Extends&amp;gt;&amp;gt;&lt;/font&gt;" style="edgeLabel;resizable=0;html=1;;align=center;verticalAlign=middle;" connectable="0" vertex="1" parent="GBGF587jGVmbTTjGobel-92">
          <mxGeometry relative="1" as="geometry" />
        </mxCell>
        <mxCell id="GBGF587jGVmbTTjGobel-94" value="" style="endArrow=classic;html=1;rounded=0;endFill=1;fontSize=18;strokeWidth=3;shadow=0;entryX=0;entryY=1;entryDx=0;entryDy=0;exitX=0.5;exitY=0;exitDx=0;exitDy=0;" edge="1" parent="1" source="UmMrPSmnTauwYGMyU9Ws-13" target="UmMrPSmnTauwYGMyU9Ws-29">
          <mxGeometry relative="1" as="geometry">
            <mxPoint x="939" y="423" as="sourcePoint" />
            <mxPoint x="719" y="10" as="targetPoint" />
          </mxGeometry>
        </mxCell>
        <mxCell id="GBGF587jGVmbTTjGobel-95" value="&lt;font style=&quot;font-size: 15px;&quot;&gt;&amp;lt;&amp;lt;Extends&amp;gt;&amp;gt;&lt;/font&gt;" style="edgeLabel;resizable=0;html=1;;align=center;verticalAlign=middle;" connectable="0" vertex="1" parent="GBGF587jGVmbTTjGobel-94">
          <mxGeometry relative="1" as="geometry" />
        </mxCell>
        <mxCell id="GBGF587jGVmbTTjGobel-96" value="" style="endArrow=classic;html=1;rounded=0;endFill=1;fontSize=18;strokeWidth=3;shadow=0;entryX=0;entryY=1;entryDx=0;entryDy=0;exitX=1;exitY=0.5;exitDx=0;exitDy=0;" edge="1" parent="1" source="UmMrPSmnTauwYGMyU9Ws-39" target="UmMrPSmnTauwYGMyU9Ws-41">
          <mxGeometry relative="1" as="geometry">
            <mxPoint x="329" y="1550" as="sourcePoint" />
            <mxPoint x="590" y="1380" as="targetPoint" />
          </mxGeometry>
        </mxCell>
        <mxCell id="GBGF587jGVmbTTjGobel-97" value="&lt;font style=&quot;font-size: 15px;&quot;&gt;&amp;lt;&amp;lt;Extends&amp;gt;&amp;gt;&lt;/font&gt;" style="edgeLabel;resizable=0;html=1;;align=center;verticalAlign=middle;" connectable="0" vertex="1" parent="GBGF587jGVmbTTjGobel-96">
          <mxGeometry relative="1" as="geometry" />
        </mxCell>
        <mxCell id="GBGF587jGVmbTTjGobel-98" value="" style="endArrow=classic;html=1;rounded=0;endFill=1;fontSize=18;strokeWidth=3;shadow=0;entryX=0.5;entryY=1;entryDx=0;entryDy=0;exitX=0.5;exitY=0;exitDx=0;exitDy=0;" edge="1" parent="1" source="UmMrPSmnTauwYGMyU9Ws-17" target="UmMrPSmnTauwYGMyU9Ws-38">
          <mxGeometry relative="1" as="geometry">
            <mxPoint x="320" y="1635" as="sourcePoint" />
            <mxPoint x="821" y="1430" as="targetPoint" />
          </mxGeometry>
        </mxCell>
        <mxCell id="GBGF587jGVmbTTjGobel-99" value="&lt;font style=&quot;font-size: 15px;&quot;&gt;&amp;lt;&amp;lt;Extends&amp;gt;&amp;gt;&lt;/font&gt;" style="edgeLabel;resizable=0;html=1;;align=center;verticalAlign=middle;" connectable="0" vertex="1" parent="GBGF587jGVmbTTjGobel-98">
          <mxGeometry relative="1" as="geometry" />
        </mxCell>
        <mxCell id="GBGF587jGVmbTTjGobel-101" value="" style="endArrow=classic;html=1;rounded=0;endFill=1;fontSize=18;strokeWidth=3;shadow=0;entryX=0.5;entryY=1;entryDx=0;entryDy=0;exitX=0.5;exitY=0;exitDx=0;exitDy=0;" edge="1" parent="1" source="UmMrPSmnTauwYGMyU9Ws-12" target="UmMrPSmnTauwYGMyU9Ws-29">
          <mxGeometry relative="1" as="geometry">
            <mxPoint x="220" y="550" as="sourcePoint" />
            <mxPoint x="540" y="340" as="targetPoint" />
          </mxGeometry>
        </mxCell>
        <mxCell id="GBGF587jGVmbTTjGobel-102" value="&lt;font style=&quot;font-size: 15px;&quot;&gt;&amp;lt;&amp;lt;Extends&amp;gt;&amp;gt;&lt;/font&gt;" style="edgeLabel;resizable=0;html=1;;align=center;verticalAlign=middle;" connectable="0" vertex="1" parent="GBGF587jGVmbTTjGobel-101">
          <mxGeometry relative="1" as="geometry" />
        </mxCell>
        <mxCell id="GBGF587jGVmbTTjGobel-103" value="" style="endArrow=classic;html=1;rounded=0;endFill=1;fontSize=18;strokeWidth=3;shadow=0;entryX=0.5;entryY=1;entryDx=0;entryDy=0;exitX=0.5;exitY=0;exitDx=0;exitDy=0;" edge="1" parent="1" source="UmMrPSmnTauwYGMyU9Ws-33" target="UmMrPSmnTauwYGMyU9Ws-24">
          <mxGeometry relative="1" as="geometry">
            <mxPoint x="310" y="550" as="sourcePoint" />
            <mxPoint x="540" y="340" as="targetPoint" />
          </mxGeometry>
        </mxCell>
        <mxCell id="GBGF587jGVmbTTjGobel-104" value="&lt;font style=&quot;font-size: 15px;&quot;&gt;&amp;lt;&amp;lt;Extends&amp;gt;&amp;gt;&lt;/font&gt;" style="edgeLabel;resizable=0;html=1;;align=center;verticalAlign=middle;" connectable="0" vertex="1" parent="GBGF587jGVmbTTjGobel-103">
          <mxGeometry relative="1" as="geometry" />
        </mxCell>
        <mxCell id="GBGF587jGVmbTTjGobel-105" value="" style="endArrow=classic;html=1;rounded=0;endFill=1;fontSize=18;strokeWidth=3;shadow=0;entryX=1;entryY=0;entryDx=0;entryDy=0;exitX=0.5;exitY=1;exitDx=0;exitDy=0;" edge="1" parent="1" source="UmMrPSmnTauwYGMyU9Ws-32" target="UmMrPSmnTauwYGMyU9Ws-35">
          <mxGeometry relative="1" as="geometry">
            <mxPoint x="430" y="1250" as="sourcePoint" />
            <mxPoint x="760" y="510" as="targetPoint" />
          </mxGeometry>
        </mxCell>
        <mxCell id="GBGF587jGVmbTTjGobel-106" value="&lt;font style=&quot;font-size: 15px;&quot;&gt;&amp;lt;&amp;lt;Extends&amp;gt;&amp;gt;&lt;/font&gt;" style="edgeLabel;resizable=0;html=1;;align=center;verticalAlign=middle;" connectable="0" vertex="1" parent="GBGF587jGVmbTTjGobel-105">
          <mxGeometry relative="1" as="geometry" />
        </mxCell>
      </root>
    </mxGraphModel>
  </diagram>
</mxfile>
